<svg width="96" height="16" viewBox="0 0 96 16" fill="none" xmlns="http://www.w3.org/2000/svg">
<path d="M8.00005 11.5133L10.7667 13.1866C11.2734 13.4933 11.8934 13.0399 11.76 12.4666L11.0267 9.31992L13.4734 7.19993C13.92 6.81326 13.68 6.07993 13.0934 6.03326L9.87338 5.75993L8.61338 2.78659C8.38671 2.24659 7.61338 2.24659 7.38671 2.78659L6.12671 5.75326L2.90672 6.02659C2.32005 6.07326 2.08005 6.80659 2.52672 7.19326L4.97338 9.31326L4.24005 12.4599C4.10672 13.0333 4.72671 13.4866 5.23338 13.1799L8.00005 11.5133Z" fill="#C46A2B"/>
<path d="M28 11.5133L30.7667 13.1866C31.2734 13.4933 31.8934 13.0399 31.76 12.4666L31.0267 9.31992L33.4734 7.19993C33.92 6.81326 33.68 6.07993 33.0934 6.03326L29.8734 5.75993L28.6134 2.78659C28.3867 2.24659 27.6134 2.24659 27.3867 2.78659L26.1267 5.75326L22.9067 6.02659C22.32 6.07326 22.08 6.80659 22.5267 7.19326L24.9734 9.31326L24.24 12.4599C24.1067 13.0333 24.7267 13.4866 25.2334 13.1799L28 11.5133Z" fill="#C46A2B"/>
<path d="M48 11.5133L50.7667 13.1866C51.2734 13.4933 51.8934 13.0399 51.76 12.4666L51.0267 9.31992L53.4734 7.19993C53.92 6.81326 53.68 6.07993 53.0934 6.03326L49.8734 5.75993L48.6134 2.78659C48.3867 2.24659 47.6134 2.24659 47.3867 2.78659L46.1267 5.75326L42.9067 6.02659C42.32 6.07326 42.08 6.80659 42.5267 7.19326L44.9734 9.31326L44.24 12.4599C44.1067 13.0333 44.7267 13.4866 45.2334 13.1799L48 11.5133Z" fill="#C46A2B"/>
<path d="M68 11.5133L70.7667 13.1866C71.2734 13.4933 71.8934 13.0399 71.76 12.4666L71.0267 9.31992L73.4734 7.19993C73.92 6.81326 73.68 6.07993 73.0934 6.03326L69.8734 5.75993L68.6134 2.78659C68.3867 2.24659 67.6134 2.24659 67.3867 2.78659L66.1267 5.75326L62.9067 6.02659C62.32 6.07326 62.08 6.80659 62.5267 7.19326L64.9734 9.31326L64.24 12.4599C64.1067 13.0333 64.7267 13.4866 65.2334 13.1799L68 11.5133Z" fill="#C46A2B"/>
<path d="M88 11.5133L90.7667 13.1866C91.2734 13.4933 91.8934 13.0399 91.76 12.4666L91.0267 9.31992L93.4734 7.19993C93.92 6.81326 93.68 6.07993 93.0934 6.03326L89.8734 5.75993L88.6134 2.78659C88.3867 2.24659 87.6134 2.24659 87.3867 2.78659L86.1267 5.75326L82.9067 6.02659C82.32 6.07326 82.08 6.80659 82.5267 7.19326L84.9734 9.31326L84.24 12.4599C84.1067 13.0333 84.7267 13.4866 85.2334 13.1799L88 11.5133Z" fill="#C46A2B"/>
</svg>
