<svg width="24" height="24" viewBox="0 0 24 24" fill="none" xmlns="http://www.w3.org/2000/svg">
<path d="M23.988 5.45667C23.978 4.94182 23.9367 4.42804 23.8644 3.9182C23.7782 3.4647 23.6317 3.02477 23.4288 2.61013C22.9846 1.73325 22.2726 1.02074 21.396 0.576029C20.984 0.374074 20.547 0.227978 20.0964 0.141607C19.5827 0.0677825 19.0649 0.0257005 18.546 0.0156008C18.3264 0.00720037 18.042 0.00360021 17.91 0.00360021L6.0924 0C5.9604 0 5.676 0.00360017 5.4564 0.0120006C4.94157 0.021921 4.42781 0.0631995 3.918 0.135607C3.46452 0.221819 3.02462 0.368326 2.61 0.571229C1.73321 1.01549 1.02076 1.72756 0.576 2.60413C0.374108 3.01613 0.228022 3.4532 0.1416 3.9038C0.0674439 4.41752 0.0249637 4.93533 0.0144001 5.45427C0.0072001 5.67388 0.00240011 5.9583 0.00240011 6.0903L0 17.9085C0 18.0405 0.00359999 18.3249 0.012 18.5445C0.0219199 19.0594 0.0631963 19.5732 0.1356 20.083C0.221822 20.5365 0.368321 20.9764 0.5712 21.3911C1.01544 22.2679 1.72747 22.9804 2.604 23.4252C3.01599 23.627 3.45303 23.7731 3.9036 23.8596C4.41732 23.9334 4.9351 23.9755 5.454 23.9856C5.6736 23.994 5.958 23.9976 6.09 23.9976L17.9076 24C18.0396 24 18.324 23.9964 18.5436 23.988C19.0584 23.978 19.5722 23.9368 20.082 23.8644C20.5355 23.7781 20.9754 23.6316 21.39 23.4288C22.2672 22.9847 22.9801 22.2726 23.4252 21.3959C23.6271 20.9839 23.7732 20.5468 23.8596 20.0962C23.9338 19.5825 23.9763 19.0647 23.9868 18.5457C23.994 18.3261 23.9988 18.0417 23.9988 17.9097L24 6.0927C24 5.9607 23.9964 5.67628 23.988 5.45667ZM12.2604 20.3494H12.2568C10.8284 20.3491 9.42282 19.991 8.1684 19.3078L3.6324 20.497L4.8468 16.0652C3.90654 14.4335 3.53085 12.5372 3.77796 10.6702C4.02507 8.80323 4.88119 7.06995 6.21357 5.73908C7.54595 4.40822 9.28016 3.55412 11.1473 3.30922C13.0145 3.06432 14.9103 3.44229 16.5408 4.38453C18.1713 5.32678 19.4454 6.78065 20.1656 8.52074C20.8858 10.2608 21.0118 12.1899 20.5241 14.0089C20.0364 15.8279 18.9622 17.4352 17.4681 18.5816C15.9741 19.7279 14.1436 20.3493 12.2604 20.3494Z" fill="#D9D9D9"/>
</svg>
